<svg xmlns="http://www.w3.org/2000/svg"  viewBox="0 0 64 64" width="64px" height="64px"><path fill="orange" d="M49,19.999V52H13c-2.761,0-5-2.239-5-5V15c0-2.209,1.791-4,4-4h11.046	c1.756,0,3.307,1.145,3.823,2.824l0.234,0.761c0.258,0.839,1.033,1.412,1.911,1.412l15.986,0.003C47.21,16,49,17.79,49,19.999z"/><ellipse cx="32" cy="60.993" opacity=".3" rx="22.563" ry="3"/><path fill="#ffce29" d="M55.22,23H24.7c-3.319,0-6.182,2.331-6.855,5.582L13,52h36.3c3.319,0,6.182-2.331,6.855-5.582	l3.674-17.758C60.433,25.739,58.203,23,55.22,23z"/><path fill="#fff" d="M46,23H24.7c-3.319,0-6.182,2.331-6.855,5.582L15.775,38.59c0,0,0,0,0.001,0 c0.342,0.07,0.682,0.104,1.018,0.104c2.321,0,4.402-1.626,4.892-3.988l1.058-5.112C22.934,28.67,23.757,28,24.7,28H41 C43.762,28,46,25.762,46,23z" opacity=".3"/><path d="M56.155,46.418l2.984-14.424c0,0,0,0-0.001,0c-2.711-0.558-5.35,1.181-5.909,3.884l-1.971,9.526 C51.067,46.329,50.244,47,49.301,47H39c-2.762,0-5,2.238-5,5h15.3C52.62,52,55.483,49.669,56.155,46.418z" opacity=".15"/><path fill="none" stroke="#fff" stroke-linecap="round" stroke-linejoin="round" stroke-miterlimit="10" stroke-width="3" d="M20.779,31.681l0.494-2.39c0.334-1.617,1.775-2.791,3.427-2.791h3.738"/></svg>